<svg xmlns="http://www.w3.org/2000/svg" xmlns:xlink="http://www.w3.org/1999/xlink" width="60" zoomAndPan="magnify" viewBox="0 0 45 44.999999" height="60" preserveAspectRatio="xMidYMid meet" version="1.0"><defs><clipPath id="c352121913"><path d="M 11.117188 11.351562 L 33.617188 11.351562 L 33.617188 33.851562 L 11.117188 33.851562 Z M 11.117188 11.351562 " clip-rule="nonzero"/></clipPath></defs><rect x="-4.5" width="54" fill="#ffffff" y="-4.5" height="53.999999" fill-opacity="1"/><rect x="-4.5" width="54" fill="#ffffff" y="-4.5" height="53.999999" fill-opacity="1"/><g clip-path="url(#c352121913)"><path fill="#24292f" d="M 22.335938 11.351562 C 16.132812 11.351562 11.121094 16.507812 11.121094 22.886719 C 11.121094 27.984375 14.332031 32.300781 18.789062 33.828125 C 19.34375 33.941406 19.550781 33.582031 19.550781 33.273438 C 19.550781 33.007812 19.53125 32.089844 19.53125 31.136719 C 16.410156 31.824219 15.761719 29.761719 15.761719 29.761719 C 15.261719 28.421875 14.519531 28.082031 14.519531 28.082031 C 13.496094 27.375 14.59375 27.375 14.59375 27.375 C 15.722656 27.449219 16.320312 28.558594 16.320312 28.558594 C 17.320312 30.3125 18.9375 29.816406 19.585938 29.511719 C 19.679688 28.765625 19.976562 28.25 20.292969 27.964844 C 17.804688 27.699219 15.1875 26.703125 15.1875 22.273438 C 15.1875 21.015625 15.632812 19.984375 16.335938 19.179688 C 16.226562 18.894531 15.835938 17.710938 16.449219 16.125 C 16.449219 16.125 17.394531 15.820312 19.53125 17.308594 C 20.449219 17.054688 21.382812 16.929688 22.335938 16.925781 C 23.28125 16.925781 24.246094 17.058594 25.136719 17.308594 C 27.273438 15.820312 28.21875 16.125 28.21875 16.125 C 28.832031 17.710938 28.441406 18.894531 28.332031 19.179688 C 29.054688 19.984375 29.484375 21.015625 29.484375 22.273438 C 29.484375 26.703125 26.863281 27.679688 24.359375 27.964844 C 24.765625 28.328125 25.121094 29.015625 25.121094 30.105469 C 25.121094 31.652344 25.101562 32.894531 25.101562 33.273438 C 25.101562 33.582031 25.304688 33.941406 25.863281 33.828125 C 30.316406 32.300781 33.53125 27.984375 33.53125 22.886719 C 33.546875 16.507812 28.515625 11.351562 22.335938 11.351562 Z M 22.335938 11.351562 " fill-opacity="1" fill-rule="evenodd"/></g></svg>