<svg xmlns="http://www.w3.org/2000/svg" xmlns:xlink="http://www.w3.org/1999/xlink" width="60" zoomAndPan="magnify" viewBox="0 0 45 44.999999" height="60" preserveAspectRatio="xMidYMid meet" version="1.0"><defs><clipPath id="2cd6d481b2"><path d="M 11.0625 14.46875 L 34 14.46875 L 34 30.21875 L 11.0625 30.21875 Z M 11.0625 14.46875 " clip-rule="nonzero"/></clipPath></defs><rect x="-4.5" width="54" fill="#ffffff" y="-4.5" height="53.999999" fill-opacity="1"/><rect x="-4.5" width="54" fill="#ed1d24" y="-4.5" height="53.999999" fill-opacity="1"/><g clip-path="url(#2cd6d481b2)"><path fill="#ffffff" d="M 33.417969 16.976562 C 33.15625 15.988281 32.382812 15.210938 31.402344 14.949219 C 29.625 14.46875 22.5 14.46875 22.5 14.46875 C 22.5 14.46875 15.375 14.46875 13.597656 14.949219 C 12.617188 15.210938 11.84375 15.988281 11.582031 16.976562 C 11.105469 18.765625 11.105469 22.496094 11.105469 22.496094 C 11.105469 22.496094 11.105469 26.226562 11.582031 28.015625 C 11.84375 29.003906 12.617188 29.78125 13.597656 30.042969 C 15.375 30.523438 22.5 30.523438 22.5 30.523438 C 22.5 30.523438 29.625 30.523438 31.402344 30.042969 C 32.382812 29.78125 33.15625 29.003906 33.417969 28.015625 C 33.894531 26.226562 33.894531 22.496094 33.894531 22.496094 C 33.894531 22.496094 33.894531 18.765625 33.417969 16.976562 " fill-opacity="1" fill-rule="nonzero"/></g><path fill="#ed1d24" d="M 20.167969 25.886719 L 26.125 22.496094 L 20.167969 19.109375 Z M 20.167969 25.886719 " fill-opacity="1" fill-rule="nonzero"/></svg>